<?xml version="1.0" encoding="utf-8"?>
<!-- Generator: Adobe Illustrator 22.1.0, SVG Export Plug-In . SVG Version: 6.00 Build 0)  -->
<svg version="1.1" id="Layer_2_1_" xmlns="http://www.w3.org/2000/svg" xmlns:xlink="http://www.w3.org/1999/xlink" x="0px" y="0px"
	 viewBox="0 0 3618.6 3618.6" style="enable-background:new 0 0 3618.6 3618.6;" xml:space="preserve">
<style type="text/css">
	.st0{fill:#00D8FF;}
</style>
<g>
	
		<ellipse transform="matrix(0.7071 -0.7071 0.7071 0.7071 -748.1248 1808.7831)" class="st0" cx="1809.3" cy="1807.5" rx="194.5" ry="194.5"/>
	<path class="st0" d="M2786.3,1613.6c-67.3-56.1-162.5-106.3-275.2-145.2c-22.6-7.8-46-15.1-70-22.1c4-16.1,7.6-32.1,10.8-47.7
		c25.6-124,30.9-238.2,15.5-330.2c-16.5-98.9-56.5-169.2-115.7-203.3c-56.9-32.8-134.3-32.7-223.8,0.2
		c-82.3,30.2-173.3,87.6-263.3,165.9c-18.1,15.7-36.1,32.3-54.2,49.7c-12.1-11.5-24.1-22.7-36.1-33.3
		c-94.7-84.1-190.9-145.7-278.3-178.4c-93.9-35.1-174.8-35.5-233.9-1.3c-56.8,32.9-95.4,100-111.6,194
		c-14.9,86.4-10.6,193.9,12.3,310.9c4.6,23.6,10,47.7,16.1,72.1c-27.9,7.9-54.8,16.4-80.6,25.4c-110.9,38.7-204.2,88.7-269.7,144.8
		c-70.7,60.5-108.1,127-108.1,192.3c0,67.2,39.4,136.4,113.8,200.1c70.1,60,168.4,112.7,284.5,152.3c18.9,6.5,38.6,12.6,58.9,18.4
		c-6.6,26.5-12.3,52.5-17.1,77.9c-21.9,115.4-25.1,221.2-9.3,306c17.1,91.5,56,157.1,112.5,189.7c29.5,17,64.5,25.5,103.9,25.5
		c38.3,0,80.8-8,126.3-24.1c87-30.7,181.8-89.6,274.1-170.3c15.1-13.2,30.3-27.2,45.5-41.9c19.6,18.9,39.3,36.8,58.8,53.6
		c89.1,76.6,179.1,132.2,260.5,160.9c42.6,15,82.5,22.5,118.8,22.5c38.4,0,72.7-8.4,101.8-25.2c58.1-33.6,98.3-102.4,116.2-198.7
		c16.8-90.7,13.1-202.2-10.7-322.5c-3.8-19-8.1-38.4-13.1-58.3c13.8-4.1,27.3-8.3,40.5-12.7c120.2-39.8,221.8-92.2,293.8-151.5
		c77.4-63.7,118.3-133.5,118.3-201.8C2898.3,1741.7,2859.6,1674.7,2786.3,1613.6z M1925.7,1101.4c81.5-70.9,162.5-122.4,234.3-148.8
		c34.5-12.7,65.8-19.1,92.3-19.1c21,0,39,4,53,12.1c33.7,19.5,58.7,68.5,70.4,138c13.5,80.8,8.4,183.2-14.9,296.1
		c-2.9,14.2-6.2,28.6-9.7,43.2c-90.6-20.9-188.7-36.4-291.2-46c-22.4-31.9-45.2-62.9-68.3-92.7c-38.5-49.7-77.2-95.5-115.8-137.1
		C1892.3,1131.2,1909,1115.9,1925.7,1101.4z M1412.8,1809.8c28.2-58.9,59.3-117.8,92.6-175.7l0,0c33.6-58.2,68.9-114.4,105.5-168.1
		c65.2-5,131.7-7.6,198.4-7.6c67.3,0,133.8,2.5,198.7,7.5c36,53.2,71.2,109.3,105,167.6c34.4,59.4,65.7,117.7,94,174.6
		c-28.3,58.4-59.6,117.5-93.7,176.5c-34.2,59.3-69,115.5-104.2,168.4c-64.7,4.6-131.6,7-199.7,7c-68.1,0-134-2.1-197-6.1
		c-37.2-54.2-73-110.8-106.6-168.9l0,0C1472,1927,1440.9,1868.3,1412.8,1809.8z M1424.8,1587.6c-21.5,37.3-42,74.9-61.5,112.6
		c-27-64.1-50.2-127.2-69.2-188.3c62.2-13.9,128.5-25.2,197.3-33.8C1468.6,1513.7,1446.3,1550.3,1424.8,1587.6L1424.8,1587.6z
		 M1363.5,1919.2c19.5,37.6,40.1,75.2,61.7,112.5l0,0c22.1,38.1,44.9,75.5,68.4,112c-71.6-8-138.7-18.8-200.7-32.3
		C1312.2,2049.3,1335.9,1984.7,1363.5,1919.2z M2193.9,2031.3c22.2-38.6,43.4-77.2,63.3-115.6c29.2,66.6,53.7,130.7,73.1,191.6
		c-63.1,14.4-131.3,26-203.1,34.6C2149.7,2106.1,2172,2069.2,2193.9,2031.3z M2256.2,1700.3c-19.7-37.5-40.7-75.3-62.7-113.3
		c-21.6-37.3-43.7-73.6-66.2-109c69.3,8.8,135.9,20.4,198.6,34.7C2307.1,1572.8,2283.7,1635.8,2256.2,1700.3z M1810.4,1213.8
		c42.9,46.5,85.9,98.4,128.2,154.7c-42.6-2-85.8-3-129.2-3c-43.1,0-85.8,1-128.2,3C1723.3,1312.8,1766.6,1260.9,1810.4,1213.8z
		 M1242.1,1077.7c11.2-65,34.8-111,66.5-129.3c33.7-19.5,88.7-16.7,154.7,8c76.8,28.6,162.9,84.2,249.1,160.8
		c10.9,9.6,21.8,19.7,32.7,30.1c-63.4,68.1-126,145.5-185.6,229.6c-45.7,4.2-90.8,9.7-135.1,16.3c-54.3,8.1-106.2,17.7-155.6,28.9
		c-5.7-22.8-10.6-45.1-14.9-67.1C1233.3,1248.9,1229.2,1153,1242.1,1077.7z M1202.4,2088.7c-18.5-5.3-36.4-11-53.7-16.9
		c-105-35.9-192.8-82.5-254-134.9c-52.4-44.9-81.3-90.9-81.3-129.5c0-36.7,26.8-79.9,75.6-121.6c56.8-48.6,139.8-92.8,239.9-127.6
		c23.9-8.3,49-16.2,75-23.6c27.3,88.8,63.1,181.5,106.1,275c-19.2,41.7-37,83.5-53.4,125.2
		C1235.7,1987.5,1217.7,2038.9,1202.4,2088.7z M1706.6,2513c-83.5,73-167.8,125.8-243.8,152.6c-65.1,23-119.3,25-152.8,5.8
		c-31.8-18.3-55.8-63.2-67.5-126.2c-13.7-73.5-10.5-167.4,9.2-271.6c4.5-23.5,9.8-47.7,16-72.5c53.2,11.8,110.1,21.6,170.3,29.5
		c39.9,5.2,81,9.5,123.1,13c26.3,37,53.2,72.8,80.8,107.4c35.3,44.3,70.8,85.6,106.3,123.8C1734.3,2488.1,1720.4,2500.9,1706.6,2513
		z M1813.2,2407.7c-44.1-47.7-88.2-100.4-131.1-156.9c41.6,1.6,84.1,2.5,127.2,2.5c44.5,0,88.5-1,131.8-2.9
		C1898.6,2308.2,1855.8,2360.9,1813.2,2407.7z M2378,2537.1c-12.6,67.9-37.9,115.9-71.3,135.2c-31.8,18.4-82.6,16.8-143.1-4.5
		c-70.6-24.8-150.3-74.5-230.7-143.6c-18.1-15.6-36.3-32.2-54.7-49.9c36.7-40.2,73.6-84.5,110.5-132.6
		c24.2-31.7,48.3-64.8,72.1-99.3c37.9-3.4,75.2-7.5,111.7-12.5c64.8-8.7,126-19.8,183.2-33c4.4,17.9,8.4,35.5,11.8,52.7
		C2389,2358.5,2392.7,2457.9,2378,2537.1z M2720.8,1937.3c-63.3,52.1-154.5,98.8-263.9,135c-11.9,3.9-24.1,7.8-36.6,11.5
		c-16.6-52.5-36.7-107.3-60.4-164c-15.3-36.7-31.9-74-49.9-111.8c16-34.6,31.1-68.9,45-103c23.9-58.2,44.2-114.7,61-169
		c22.2,6.4,43.8,13.2,64.6,20.4c102.2,35.2,187.2,79.6,245.9,128.6c50.7,42.3,78.6,85.7,78.6,122.4
		C2805.3,1846.4,2775.3,1892.5,2720.8,1937.3z"/>
	<path class="st0" d="M3362.2,1489.9c-20.8-101.8-51.9-201.9-92.4-297.6c-39.7-93.9-88.9-184.5-146.2-269.3
		c-56.7-83.9-121.8-162.8-193.5-234.6c-15.9-15.9-32.1-31.4-48.6-46.6c10.8-25.8,16.8-54.1,16.8-83.8c0-119.7-97-216.8-216.8-216.8
		c-57,0-108.8,22-147.5,57.9c-35.3-18.2-71.3-35.1-107.8-50.5c-95.7-40.5-195.8-71.6-297.6-92.4c-104.4-21.4-211.9-32.2-319.4-32.2
		s-215,10.8-319.4,32.2c-101.8,20.8-201.9,51.9-297.6,92.4c-93.9,39.7-184.5,88.9-269.3,146.2c-83.9,56.7-162.8,121.8-234.6,193.5
		C616.7,760.2,551.6,839.1,494.9,923c-57.3,84.7-106.4,175.3-146.2,269.3c-40.5,95.7-71.6,195.8-92.4,297.6
		c-21.4,104.4-32.2,211.9-32.2,319.4s10.8,215,32.2,319.4c20.8,101.8,51.9,201.9,92.4,297.6c39.7,93.9,88.9,184.5,146.2,269.3
		c40.1,59.4,84.5,116.3,132.4,169.9c-13.4,22.8-21.2,49.4-21.2,77.7c0,84.6,68.6,153.3,153.3,153.3c32.6,0,62.8-10.2,87.6-27.5
		c24.8,19,50.2,37.3,76,54.7c84.7,57.3,175.3,106.4,269.3,146.2c95.7,40.5,195.8,71.6,297.6,92.4c104.4,21.4,211.9,32.2,319.4,32.2
		s215-10.8,319.4-32.2c101.8-20.8,201.9-51.9,297.6-92.4c93.9-39.7,184.5-88.9,269.3-146.2c83.9-56.7,162.8-121.8,234.6-193.5
		c71.7-71.7,136.8-150.6,193.5-234.6c57.3-84.7,106.4-175.3,146.2-269.3c40.5-95.7,71.6-195.8,92.4-297.6
		c21.4-104.4,32.2-211.9,32.2-319.4S3383.6,1594.3,3362.2,1489.9z M1809.3,3294.4c-339.5,0-652.7-114.5-903.1-306.9
		c4.2-14,6.5-28.9,6.5-44.3c0-84.6-68.6-153.3-153.3-153.3c-19.5,0-38.2,3.7-55.4,10.3c-236.1-263-379.9-610.5-379.9-990.9
		c0-818.9,666.2-1485.1,1485.1-1485.1c240.4,0,467.6,57.4,668.7,159.2c-8.5,23.3-13.2,48.4-13.2,74.7c0,119.7,97,216.8,216.8,216.8
		c53.4,0,102.2-19.3,140-51.3c290.8,271.3,472.9,657.7,472.9,1085.8C3294.4,2628.2,2628.2,3294.4,1809.3,3294.4z"/>
</g>
</svg>
